<svg width="3" height="2" viewBox="0 0 3 2" fill="none" xmlns="http://www.w3.org/2000/svg">
<g clip-path="url(#clip0_113_97)">
<rect width="3" height="2" fill="white"/>
<path fill-rule="evenodd" clip-rule="evenodd" d="M0.382385 1.86212C0.381806 1.86212 0.381228 1.86212 0.380649 1.86212V1.86111H-0.102417V2.63773H0.399342V2.6428C0.39992 2.6428 0.400499 2.6428 0.401078 2.6428C1.11753 2.64192 1.71677 2.09471 1.7964 1.3562H2.47918V0.567406H1.80623V-0.0966797H1.04474V0.56842H-0.102417V1.35721H1.01818C1.01801 1.35781 1.01783 1.35841 1.01766 1.359C0.939475 1.62843 0.684959 1.86123 0.382385 1.86212ZM-0.100681 1.35542H1.0205L1.01984 1.35772C0.941929 1.62908 0.685522 1.86391 0.380649 1.86391H0.378913V1.8629H-0.100681V2.63594H0.401078V2.64101C1.11665 2.64013 1.71514 2.0936 1.79467 1.356L1.79484 1.35441H2.47744V0.569197H1.8045V-0.0948892H1.04648V0.57021H-0.100681V1.35542Z" fill="black"/>
</g>
<defs>
<clipPath id="clip0_113_97">
<rect width="3" height="2" fill="white"/>
</clipPath>
</defs>
</svg>
