<svg width="1" height="1" viewBox="0 0 1 1" fill="none" xmlns="http://www.w3.org/2000/svg">
<g clip-path="url(#clip0_96_44)">
<rect width="1" height="1" fill="white"/>
<mask id="path-1-inside-1_96_44" fill="white">
<path d="M0.187119 0.714656H0V0.99815H0.19436V1C0.47218 1 0.704649 0.800148 0.735518 0.530348H1V0.242413H0.739329V0H0.44436V0.242783H0V0.530718H0.43407C0.403963 0.629534 0.304878 0.715026 0.187119 0.715026V0.714656Z"/>
</mask>
<path d="M0.187119 0.714656H0V0.99815H0.19436V1C0.47218 1 0.704649 0.800148 0.735518 0.530348H1V0.242413H0.739329V0H0.44436V0.242783H0V0.530718H0.43407C0.403963 0.629534 0.304878 0.715026 0.187119 0.715026V0.714656Z" fill="white"/>
<path d="M0.187119 0.714656H1.18712V-0.285344H0.187119V0.714656ZM0 0.714656V-0.285344H-1V0.714656H0ZM0 0.99815H-1V1.99815H0V0.99815ZM0.19436 0.99815H1.19436V-0.00185049H0.19436V0.99815ZM0.19436 1H-0.80564V2H0.19436V1ZM0.735518 0.530348V-0.469652H-0.156592L-0.258 0.416675L0.735518 0.530348ZM1 0.530348V1.53035H2V0.530348H1ZM1 0.242413H2V-0.757587H1V0.242413ZM0.739329 0.242413H-0.260671V1.24241H0.739329V0.242413ZM0.739329 0H1.73933V-1H0.739329V0ZM0.44436 0V-1H-0.55564V0H0.44436ZM0.44436 0.242783V1.24278H1.44436V0.242783H0.44436ZM0 0.242783V-0.757217H-1V0.242783H0ZM0 0.530718H-1V1.53072H0V0.530718ZM0.43407 0.530718L1.39066 0.822166L1.78413 -0.469282H0.43407V0.530718ZM0.187119 0.715026H-0.812881V1.71503H0.187119V0.715026ZM0.187119 -0.285344H0V1.71466H0.187119V-0.285344ZM-1 0.714656V0.99815H1V0.714656H-1ZM0 1.99815H0.19436V-0.00185049H0V1.99815ZM-0.80564 0.99815V1H1.19436V0.99815H-0.80564ZM0.19436 2C0.953335 2 1.63735 1.44535 1.72904 0.64402L-0.258 0.416675C-0.228054 0.154946 -0.0089756 2.94531e-08 0.19436 2.94531e-08V2ZM0.735518 1.53035H1V-0.469652H0.735518V1.53035ZM2 0.530348V0.242413H-3.25381e-08V0.530348H2ZM1 -0.757587H0.739329V1.24241H1V-0.757587ZM1.73933 0.242413V0H-0.260671V0.242413H1.73933ZM0.739329 -1H0.44436V1H0.739329V-1ZM-0.55564 0V0.242783H1.44436V0H-0.55564ZM0.44436 -0.757217H0V1.24278H0.44436V-0.757217ZM-1 0.242783V0.530718H1V0.242783H-1ZM0 1.53072H0.43407V-0.469282H0V1.53072ZM-0.522516 0.23927C-0.473809 0.0794035 -0.380062 -0.0439825 -0.271414 -0.128694C-0.158646 -0.216618 -0.000504181 -0.284974 0.187119 -0.284974V1.71503C0.785204 1.71503 1.24445 1.30204 1.39066 0.822166L-0.522516 0.23927ZM1.18712 0.715026V0.714656H-0.812881V0.715026H1.18712Z" fill="black" mask="url(#path-1-inside-1_96_44)"/>
</g>
<defs>
<clipPath id="clip0_96_44">
<rect width="1" height="1" fill="white"/>
</clipPath>
</defs>
</svg>
