<svg width="1" height="2" viewBox="0 0 1 2" fill="none" xmlns="http://www.w3.org/2000/svg">
<g clip-path="url(#clip0_99_93)">
<rect width="1" height="1.02" fill="white"/>
<path fill-rule="evenodd" clip-rule="evenodd" d="M0.735518 0.540955H1L1 0.247639L0.739329 0.247261V0H0.44436V0.247261L0 0.247639V0.540955L0.43407 0.541332C0.405113 0.638275 0.312346 0.722645 0.200528 0.728949C0.198478 0.729064 0.196422 0.729154 0.19436 0.729216C0.191954 0.72929 0.189541 0.729326 0.187119 0.729326L0 0.728949V1.01811H0.19436V1.02C0.209889 1.02 0.225276 1.01936 0.240495 1.01811C0.309317 1.01246 0.374683 0.994249 0.43407 0.965628C0.43752 0.963966 0.44095 0.962268 0.44436 0.960535C0.544266 0.909763 0.626417 0.829173 0.678358 0.729326C0.678292 0.729452 0.678423 0.729201 0.678358 0.729326C0.695119 0.697043 0.70892 0.662372 0.718947 0.626426C0.726606 0.598973 0.73222 0.570178 0.735518 0.540955C0.735504 0.541081 0.735532 0.540829 0.735518 0.540955Z" fill="black"/>
</g>
<defs>
<clipPath id="clip0_99_93">
<rect width="1" height="1.02" fill="white"/>
</clipPath>
</defs>
</svg>
