<svg width="1" height="1" viewBox="0 0 1 1" fill="none" xmlns="http://www.w3.org/2000/svg">
<g clip-path="url(#clip0_97_84)">
<rect width="1" height="1" fill="white"/>
<path fill-rule="evenodd" clip-rule="evenodd" d="M0.616671 -0.041171C0.535116 -0.206545 0.364828 -0.320312 0.167969 -0.320312C-0.108174 -0.320312 -0.332031 -0.0964549 -0.332031 0.179688C-0.332031 0.337813 -0.26711 0.450157 -0.23252 0.502063C-0.224173 0.514589 -0.21671 0.52486 -0.212073 0.531152L-0.209366 0.534792C-0.193216 0.560031 -0.176579 0.581349 -0.161187 0.598956C-0.14151 0.621464 -0.122862 0.639046 -0.108219 0.65183C-0.103577 0.655884 -0.0991213 0.659641 -0.0949398 0.663077C0.0532577 0.807337 0.282085 0.849615 0.477513 0.751901C0.724502 0.628407 0.824615 0.32807 0.70112 0.0810807C0.674789 0.0284189 0.643467 -0.0120483 0.616671 -0.041171ZM-0.203639 0.542474C-0.202762 0.543653 -0.203033 0.543338 -0.204151 0.541789Z" fill="black"/>
</g>
<defs>
<clipPath id="clip0_97_84">
<rect width="1" height="1" fill="white"/>
</clipPath>
</defs>
</svg>
