<svg width="1" height="1" viewBox="0 0 1 1" fill="none" xmlns="http://www.w3.org/2000/svg">
<g clip-path="url(#clip0_97_84)">
<rect width="1" height="1" fill="white"/>
<path fill-rule="evenodd" clip-rule="evenodd" d="M0.735518 0.530348H1L1 0.242783L0.739329 0.242413V0H0.44436V0.242413L0 0.242783V0.530348L0.43407 0.530718C0.405113 0.62576 0.312346 0.708476 0.200527 0.714656C0.198477 0.714769 0.196422 0.714857 0.19436 0.714918C0.191954 0.71499 0.189541 0.715026 0.187119 0.715026L0 0.714656V0.99815H0.19436V1C0.209889 1 0.225276 0.999376 0.240494 0.99815C0.309316 0.992605 0.374683 0.974753 0.43407 0.946694C0.43752 0.945064 0.44095 0.9434 0.44436 0.941701C0.544266 0.891925 0.626417 0.812915 0.678358 0.715026C0.678292 0.715149 0.678423 0.714903 0.678358 0.715026C0.694627 0.684304 0.708119 0.651356 0.718055 0.617241C0.726174 0.589368 0.732093 0.560099 0.735518 0.530348C0.735504 0.530471 0.735532 0.530225 0.735518 0.530348Z" fill="black"/>
</g>
<defs>
<clipPath id="clip0_97_84">
<rect width="1" height="1" fill="white"/>
</clipPath>
</defs>
</svg>
