<svg width="1" height="1" viewBox="0 0 1 1" fill="none" xmlns="http://www.w3.org/2000/svg">
<g clip-path="url(#clip0_113_97)">
<rect width="1" height="1" fill="white"/>
<path fill-rule="evenodd" clip-rule="evenodd" d="M0.127421 0.931059C0.127228 0.931059 0.127035 0.93106 0.126842 0.93106V0.930553H-0.0341797V1.31887H0.133073V1.3214C0.133266 1.3214 0.133459 1.3214 0.133652 1.3214C0.372469 1.32096 0.572215 1.04736 0.598758 0.678099H0.826353V0.283703H0.602037V-0.0483398H0.348206V0.28421H-0.0341797V0.678606H0.339352C0.339295 0.678904 0.339237 0.679203 0.33918 0.679501C0.313118 0.814216 0.228279 0.930615 0.127421 0.931059ZM-0.033601 0.677711H0.340127L0.339907 0.67886C0.313936 0.814542 0.228467 0.931955 0.126842 0.931955H0.126264V0.931448H-0.033601V1.31797H0.133652V1.3205C0.372177 1.32006 0.571673 1.0468 0.598183 0.678L0.59824 0.677204H0.825774V0.284598H0.601458V-0.0474446H0.348785V0.285105H-0.033601V0.677711Z" fill="black"/>
</g>
<defs>
<clipPath id="clip0_113_97">
<rect width="1" height="1" fill="white"/>
</clipPath>
</defs>
</svg>
