<svg width="1728" height="1117" viewBox="0 0 1728 1117" fill="none" xmlns="http://www.w3.org/2000/svg">
<g clip-path="url(#clip0_113_97)">
<rect width="1728" height="1117" fill="white"/>
<path fill-rule="evenodd" clip-rule="evenodd" d="M220.246 1039.99C219.913 1039.99 219.579 1039.99 219.246 1039.99V1039.42H-59V1473.17H230.013V1476C230.346 1476 230.68 1476 231.013 1476C643.689 1475.51 988.851 1169.89 1034.72 757.432H1428V316.892H1040.38V-54H601.763V317.458H-59V757.998H586.462C586.364 758.332 586.264 758.665 586.165 758.998C541.13 909.475 394.528 1039.49 220.246 1039.99ZM-58 756.998H587.801L587.421 758.282C542.543 909.839 394.853 1040.99 219.246 1040.99H218.246V1040.42H-58V1472.17H231.013V1475C643.184 1474.51 987.914 1169.27 1033.72 757.322L1033.82 756.432H1427V317.892H1039.38V-53H602.763V318.458H-58V756.998Z" fill="black"/>
</g>
<defs>
<clipPath id="clip0_113_97">
<rect width="1728" height="1117" fill="white"/>
</clipPath>
</defs>
</svg>
